<?xml version="1.0" standalone="no"?>
<!DOCTYPE svg PUBLIC "-//W3C//DTD SVG 1.1//EN"
"http://www.w3.org/Graphics/SVG/1.1/DTD/svg11.dtd">

<svg width="378" height="458" view_box="0 0 378 458"
xmlns="http://www.w3.org/2000/svg"
xmlns:link="http://www.w3.org/1999/xlink">\n\n<desc>Généré par Mocodo 2.3.7 le Fri, 10 Jun 2022 00:46:02</desc>

<rect id="frame" x="0" y="0" width="378" height="458" fill="#f7f7f7" stroke="none" stroke-width="0"/>

<!-- Association POSSEDE -->
<line x1="307" y1="111" x2="176" y2="111" stroke="#7fbc41" stroke-width="2"/>
<text x="218" y="128.0" fill="#c51b7d" font-family="Verdana" font-size="12">0,N</text>
<line x1="176" y1="263" x2="176" y2="111" stroke="#7fbc41" stroke-width="2"/>
<text x="181.0" y="221" fill="#c51b7d" font-family="Verdana" font-size="12">1,1</text>
<g id="association-POSSEDE">
	<path d="M 199 86 a 14 14 90 0 1 14 14 V 111 h -74 V 100 a 14 14 90 0 1 14 -14" fill="#b8e186" stroke="#b8e186" stroke-width="0"/>
	<path d="M 213 111.0 v 11 a 14 14 90 0 1 -14 14 H 153 a 14 14 90 0 1 -14 -14 V 111.0 H 74" fill="#e6f5d0" stroke="#e6f5d0" stroke-width="0"/>
	<rect x="139" y="86" width="74" height="50" fill="none" rx="14" stroke="#7fbc41" stroke-width="2"/>
	<line x1="139" y1="111" x2="213" y2="111" stroke="#7fbc41" stroke-width="1"/>
	<text x="146" y="103.7" fill="#000000" font-family="Verdana" font-size="12">POSSEDE</text>
</g>

<!-- Association DETIENT -->
<line x1="307" y1="381" x2="307" y2="263" stroke="#7fbc41" stroke-width="2"/>
<text x="312.0" y="339" fill="#c51b7d" font-family="Verdana" font-size="12">0,N</text>
<line x1="307" y1="111" x2="307" y2="263" stroke="#7fbc41" stroke-width="2"/>
<text x="312.0" y="213" fill="#c51b7d" font-family="Verdana" font-size="12">0,N</text>
<line x1="176" y1="263" x2="307" y2="263" stroke="#7fbc41" stroke-width="2"/>
<text x="214" y="280.0" fill="#c51b7d" font-family="Verdana" font-size="12">0,N</text>
<g id="association-DETIENT">
	<path d="M 327 238 a 14 14 90 0 1 14 14 V 263 h -68 V 252 a 14 14 90 0 1 14 -14" fill="#b8e186" stroke="#b8e186" stroke-width="0"/>
	<path d="M 341 263.0 v 11 a 14 14 90 0 1 -14 14 H 287 a 14 14 90 0 1 -14 -14 V 263.0 H 68" fill="#e6f5d0" stroke="#e6f5d0" stroke-width="0"/>
	<rect x="273" y="238" width="68" height="50" fill="none" rx="14" stroke="#7fbc41" stroke-width="2"/>
	<line x1="273" y1="263" x2="341" y2="263" stroke="#7fbc41" stroke-width="1"/>
	<text x="280" y="255.7" fill="#000000" font-family="Verdana" font-size="12">DETIENT</text>
</g>

<!-- Association CREE -->
<line x1="59" y1="381" x2="176" y2="381" stroke="#7fbc41" stroke-width="2"/>
<text x="114" y="398.0" fill="#c51b7d" font-family="Verdana" font-size="12">0,N</text>
<line x1="307" y1="381" x2="176" y2="381" stroke="#7fbc41" stroke-width="2"/>
<text x="229" y="398.0" fill="#c51b7d" font-family="Verdana" font-size="12">1,1</text>
<g id="association-CREE">
	<path d="M 186 356 a 14 14 90 0 1 14 14 V 381 h -48 V 370 a 14 14 90 0 1 14 -14" fill="#b8e186" stroke="#b8e186" stroke-width="0"/>
	<path d="M 200 381.0 v 11 a 14 14 90 0 1 -14 14 H 166 a 14 14 90 0 1 -14 -14 V 381.0 H 48" fill="#e6f5d0" stroke="#e6f5d0" stroke-width="0"/>
	<rect x="152" y="356" width="48" height="50" fill="none" rx="14" stroke="#7fbc41" stroke-width="2"/>
	<line x1="152" y1="381" x2="200" y2="381" stroke="#7fbc41" stroke-width="1"/>
	<text x="159" y="373.7" fill="#000000" font-family="Verdana" font-size="12">CREE</text>
</g>

<!-- Association DECRIT -->
<line x1="176" y1="263" x2="59" y2="263" stroke="#7fbc41" stroke-width="2"/>
<text x="117" y="280.0" fill="#c51b7d" font-family="Verdana" font-size="12">0,1</text>
<line x1="59" y1="111" x2="59" y2="263" stroke="#7fbc41" stroke-width="2"/>
<text x="64.0" y="230" fill="#c51b7d" font-family="Verdana" font-size="12">1,1</text>
<g id="association-DECRIT">
	<path d="M 76 238 a 14 14 90 0 1 14 14 V 263 h -62 V 252 a 14 14 90 0 1 14 -14" fill="#b8e186" stroke="#b8e186" stroke-width="0"/>
	<path d="M 90 263.0 v 11 a 14 14 90 0 1 -14 14 H 42 a 14 14 90 0 1 -14 -14 V 263.0 H 62" fill="#e6f5d0" stroke="#e6f5d0" stroke-width="0"/>
	<rect x="28" y="238" width="62" height="50" fill="none" rx="14" stroke="#7fbc41" stroke-width="2"/>
	<line x1="28" y1="263" x2="90" y2="263" stroke="#7fbc41" stroke-width="1"/>
	<text x="35" y="255.7" fill="#000000" font-family="Verdana" font-size="12">DECRIT</text>
</g>

<!-- Entity DESCRIPTIF -->
<g id="entity-DESCRIPTIF">
	<g id="frame-DESCRIPTIF">
		<rect x="11" y="9" width="96" height="25" fill="#f1b6da" stroke="#f1b6da" stroke-width="0"/>
		<rect x="11" y="34.0" width="96" height="179" fill="#fde0ef" stroke="#fde0ef" stroke-width="0"/>
		<rect x="11" y="9" width="96" height="204" fill="none" stroke="#de77ae" stroke-width="2"/>
		<line x1="11" y1="34" x2="107" y2="34" stroke="#de77ae" stroke-width="1"/>
	</g>
	<text x="22" y="26.7" fill="#000000" font-family="Verdana" font-size="12">DESCRIPTIF</text>
	<text x="16" y="51.7" fill="#000000" font-family="Verdana" font-size="12">code_jeu</text>
	<line x1="16" y1="54" x2="72" y2="54" stroke="#000000" stroke-width="1"/>
	<text x="16" y="68.7" fill="#000000" font-family="Verdana" font-size="12">titre</text>
	<text x="16" y="85.7" fill="#000000" font-family="Verdana" font-size="12">éditeur</text>
	<text x="16" y="102.7" fill="#000000" font-family="Verdana" font-size="12">développeur</text>
	<text x="16" y="119.8" fill="#000000" font-family="Verdana" font-size="12">nb joueur</text>
	<text x="16" y="136.8" fill="#000000" font-family="Verdana" font-size="12">note</text>
	<text x="16" y="153.8" fill="#000000" font-family="Verdana" font-size="12">synopsis</text>
	<text x="16" y="170.8" fill="#000000" font-family="Verdana" font-size="12">date de sortie</text>
	<text x="16" y="187.8" fill="#000000" font-family="Verdana" font-size="12">genre</text>
	<text x="16" y="204.8" fill="#000000" font-family="Verdana" font-size="12">médias</text>
</g>

<!-- Entity COLLECTION -->
<g id="entity-COLLECTION">
	<g id="frame-COLLECTION">
		<rect x="255" y="347" width="104" height="25" fill="#f1b6da" stroke="#f1b6da" stroke-width="0"/>
		<rect x="255" y="372.0" width="104" height="43" fill="#fde0ef" stroke="#fde0ef" stroke-width="0"/>
		<rect x="255" y="347" width="104" height="68" fill="none" stroke="#de77ae" stroke-width="2"/>
		<line x1="255" y1="372" x2="359" y2="372" stroke="#de77ae" stroke-width="1"/>
	</g>
	<text x="267" y="364.7" fill="#000000" font-family="Verdana" font-size="12">COLLECTION</text>
	<text x="260" y="389.8" fill="#000000" font-family="Verdana" font-size="12">code_collection</text>
	<line x1="260" y1="392" x2="353" y2="392" stroke="#000000" stroke-width="1"/>
	<text x="260" y="406.8" fill="#000000" font-family="Verdana" font-size="12">label</text>
</g>

<!-- Entity USER -->
<g id="entity-USER">
	<g id="frame-USER">
		<rect x="9" y="313" width="100" height="25" fill="#f1b6da" stroke="#f1b6da" stroke-width="0"/>
		<rect x="9" y="338.0" width="100" height="111" fill="#fde0ef" stroke="#fde0ef" stroke-width="0"/>
		<rect x="9" y="313" width="100" height="136" fill="none" stroke="#de77ae" stroke-width="2"/>
		<line x1="9" y1="338" x2="109" y2="338" stroke="#de77ae" stroke-width="1"/>
	</g>
	<text x="42" y="330.7" fill="#000000" font-family="Verdana" font-size="12">USER</text>
	<text x="14" y="355.7" fill="#000000" font-family="Verdana" font-size="12">code_user</text>
	<line x1="14" y1="358" x2="77" y2="358" stroke="#000000" stroke-width="1"/>
	<text x="14" y="372.7" fill="#000000" font-family="Verdana" font-size="12">email</text>
	<text x="14" y="389.8" fill="#000000" font-family="Verdana" font-size="12">password</text>
	<text x="14" y="406.8" fill="#000000" font-family="Verdana" font-size="12">nom</text>
	<text x="14" y="423.8" fill="#000000" font-family="Verdana" font-size="12">prénom</text>
	<text x="14" y="440.8" fill="#000000" font-family="Verdana" font-size="12">photo de profil</text>
</g>

<!-- Entity SYSTEME -->
<g id="entity-SYSTEME">
	<g id="frame-SYSTEME">
		<rect x="245" y="26" width="124" height="25" fill="#f1b6da" stroke="#f1b6da" stroke-width="0"/>
		<rect x="245" y="51.0" width="124" height="145" fill="#fde0ef" stroke="#fde0ef" stroke-width="0"/>
		<rect x="245" y="26" width="124" height="170" fill="none" stroke="#de77ae" stroke-width="2"/>
		<line x1="245" y1="51" x2="369" y2="51" stroke="#de77ae" stroke-width="1"/>
	</g>
	<text x="278" y="43.7" fill="#000000" font-family="Verdana" font-size="12">SYSTEME</text>
	<text x="250" y="68.7" fill="#000000" font-family="Verdana" font-size="12">code_systeme</text>
	<line x1="250" y1="71" x2="337" y2="71" stroke="#000000" stroke-width="1"/>
	<text x="250" y="85.7" fill="#000000" font-family="Verdana" font-size="12">nom</text>
	<text x="250" y="102.7" fill="#000000" font-family="Verdana" font-size="12">compagnie</text>
	<text x="250" y="119.8" fill="#000000" font-family="Verdana" font-size="12">type</text>
	<text x="250" y="136.8" fill="#000000" font-family="Verdana" font-size="12">support</text>
	<text x="250" y="153.8" fill="#000000" font-family="Verdana" font-size="12">date de lancement</text>
	<text x="250" y="170.8" fill="#000000" font-family="Verdana" font-size="12">date d'arrêt</text>
	<text x="250" y="187.8" fill="#000000" font-family="Verdana" font-size="12">média</text>
</g>

<!-- Entity JEU -->
<g id="entity-JEU">
	<g id="frame-JEU">
		<rect x="143" y="229" width="66" height="25" fill="#f1b6da" stroke="#f1b6da" stroke-width="0"/>
		<rect x="143" y="254.0" width="66" height="43" fill="#fde0ef" stroke="#fde0ef" stroke-width="0"/>
		<rect x="143" y="229" width="66" height="68" fill="none" stroke="#de77ae" stroke-width="2"/>
		<line x1="143" y1="254" x2="209" y2="254" stroke="#de77ae" stroke-width="1"/>
	</g>
	<text x="164" y="246.7" fill="#000000" font-family="Verdana" font-size="12">JEU</text>
	<text x="148" y="271.8" fill="#000000" font-family="Verdana" font-size="12">code_jeu</text>
	<line x1="148" y1="274" x2="204" y2="274" stroke="#000000" stroke-width="1"/>
	<text x="148" y="288.8" fill="#000000" font-family="Verdana" font-size="12">titre</text>
</g>
</svg>